# xmcd
#
# Track frame offsets: 
#        183
#        15898
#        33733
#        51230
#        69890
#        91628
#        119830
#        142963
#        166323
#        185350
#        208890
#        228958
#        249105
#
# Disc length: 3583 seconds
#
# Revision: 1
# Processed by: cddbd v1.5.2PL0 Copyright (c) Steve Scherf et al.
# Submitted via: ExactAudioCopyFreeDBPlugin 1.0
#
DISCID=a40dfd0d
DTITLE=Various Artist - Poeten CD2 - das liedermacher album
DYEAR=1992
DGENRE=Deutsch
TTITLE0=Hubert Kah - Wenn der Mond die Sonne berührt
TTITLE1=Jule Neigel Band - Schatten an der Wand
TTITLE2=Stefan Waggershausen - Mitten ins Herz
TTITLE3=Peter Maffay - Ein Wort bricht das Schweigen
TTITLE4=Stephan Sulke - Habt mich doch alle gern
TTITLE5=Joachim Witt - Kosmetik
TTITLE6=Wolfgang Ambros - Es lebe der Zentralfriedhof
TTITLE7=Konstantin Wecker - Genug ist nicht genug
TTITLE8=Joana - Zu End' geliebt
TTITLE9=Wolfgang Ambros - Wie wird das weitergeh'n
TTITLE10=Georg Danzer - Seltsam
TTITLE11=Reinhard Mey - Kaspar
TTITLE12=Klaus Hoffmann - Adieu Emilie
EXTD=Das Liedermacheralbum - starke Texte, gefühlvolle Musik
EXTT0=
EXTT1=
EXTT2=
EXTT3=
EXTT4=
EXTT5=
EXTT6=
EXTT7=
EXTT8=
EXTT9=
EXTT10=
EXTT11=
EXTT12=
PLAYORDER=
